<?xml version="1.0" standalone="no"?> <!DOCTYPE svg PUBLIC "-//W3C//DTD SVG 20010904//EN" "http://www.w3.org/TR/2001/REC-SVG-20010904/DTD/svg10.dtd"> <svg version="1.0" xmlns="http://www.w3.org/2000/svg" width="311.000000pt" height="223.000000pt" viewBox="0 0 311.000000 223.000000" preserveAspectRatio="xMidYMid meet"> <g transform="translate(0.000000,223.000000) scale(0.050000,-0.050000)" fill="#2596be" stroke="none"> <path d="M1744 4129 c-47 -175 -101 -220 -374 -309 -341 -112 -370 -345 -82 -672 l89 -101 -56 -33 -57 -34 -67 105 c-246 386 -447 423 -647 118 -161 -245 -219 -285 -420 -290 l-125 -3 112 -102 113 -103 10 -247 10 -248 36 80 c20 44 62 113 95 154 75 94 70 220 -14 318 -38 44 -35 52 28 67 99 24 203 114 294 252 172 261 265 257 447 -22 l80 -122 -57 -113 c-93 -188 -94 -204 -10 -204 51 0 71 9 71 31 0 230 388 413 592 279 41 -26 54 -25 132 10 203 92 496 -62 496 -262 0 -24 21 -36 71 -42 69 -8 70 -7 57 53 -14 66 -67 177 -114 240 -26 35 -20 49 70 165 221 280 251 278 481 -34 75 -100 178 -177 260 -194 66 -13 68 -28 13 -78 -34 -30 -118 -168 -118 -192 0 -23 251 4 254 27 18 137 36 187 87 245 77 87 75 92 -28 92 -107 0 -196 56 -287 180 -284 386 -427 392 -701 30 -51 -66 -98 -127 -105 -136 -7 -8 -28 -10 -46 -3 -27 10 -13 41 79 172 251 358 208 542 -146 618 -285 62 -396 142 -451 323 -29 99 -42 96 -72 -15z m319 -444 c59 -22 149 -46 201 -53 239 -35 256 -188 48 -464 l-62 -82 -120 9 c-83 7 -143 0 -195 -22 -68 -28 -82 -28 -150 0 -54 23 -116 29 -220 22 l-145 -9 -78 102 c-225 296 -204 353 167 464 88 27 142 59 210 127 l91 91 73 -73 c40 -40 121 -90 180 -112z"/> <path d="M3665 2245 c10 -1229 21 -1287 293 -1420 l112 -55 750 0 750 0 144 68 c80 37 160 84 178 105 59 65 78 45 71 -73 l-7 -110 127 0 127 0 -6 635 c-7 750 -15 798 -161 944 -321 321 -1115 171 -1123 -211 -1 -62 312 -18 376 54 59 66 66 68 227 74 270 11 406 -92 432 -327 l10 -89 -217 -1 c-446 -1 -742 -100 -857 -287 -75 -122 -97 -347 -43 -454 42 -84 60 -78 -261 -80 -648 -3 -627 -44 -627 1239 l0 979 -151 2 -152 1 8 -994z m2200 -658 c85 -14 94 -52 53 -216 -97 -387 -797 -477 -798 -103 0 240 341 386 745 319z m207 -519 c-6 -15 -22 -27 -36 -26 -18 1 -19 4 -3 11 12 5 18 26 13 48 -6 21 -3 54 6 74 19 42 39 -59 20 -107z"/> <path d="M675 2485 c-164 -61 -315 -221 -315 -334 0 -71 286 -41 364 37 212 212 627 60 652 -237 l9 -111 -248 0 c-601 -1 -898 -186 -897 -559 1 -476 716 -688 1094 -324 66 64 72 55 58 -77 l-14 -120 141 0 141 0 -13 380 c-7 209 -7 380 0 380 68 0 293 -146 293 -190 0 -90 85 -276 167 -365 233 -253 577 -261 927 -22 46 31 86 57 90 57 3 0 6 -52 6 -115 l0 -115 135 -6 135 -6 0 586 c0 322 6 714 13 871 l13 285 -153 0 -153 0 -1 -335 c-4 -934 -84 -1109 -522 -1141 -324 -23 -365 72 -373 871 l-6 605 -149 0 -149 0 0 -391 0 -390 -59 31 c-33 17 -94 37 -135 46 l-76 16 -12 149 c-21 249 -127 412 -328 501 -139 63 -495 75 -635 23z m884 -774 c52 -55 43 -111 -16 -111 -50 0 -132 122 -97 144 40 26 65 18 113 -33z m-195 -201 c-15 -202 -94 -322 -269 -409 -338 -169 -653 16 -510 299 80 158 192 198 545 193 l240 -3 -6 -80z"/> <path d="M302 447 c-60 -127 -67 -196 -13 -122 33 45 171 49 171 5 0 -16 13 -30 29 -30 22 0 14 33 -33 140 -76 171 -77 172 -154 7z m98 35 c0 -10 5 -33 12 -50 9 -24 0 -32 -39 -32 -48 0 -50 4 -29 50 22 49 56 68 56 32z"/> <path d="M557 566 c-16 -95 -3 -266 20 -266 20 0 25 22 20 80 -10 99 1 100 55 7 l41 -73 45 73 c57 92 67 91 59 0 -4 -46 3 -77 18 -82 31 -10 36 246 6 265 -11 6 -38 -24 -60 -68 -57 -111 -74 -115 -120 -24 -40 79 -79 119 -84 88z"/> <path d="M913 567 c-7 -8 -13 -71 -13 -140 l0 -127 98 0 c112 0 164 40 128 98 -12 19 -17 59 -12 88 14 69 -147 134 -201 81z m139 -47 c15 0 28 -13 28 -30 0 -21 -21 -30 -68 -30 -67 0 -69 3 -54 77 1 4 16 2 34 -5 17 -7 44 -12 60 -12z m38 -140 c0 -19 -23 -32 -65 -36 -55 -6 -65 0 -65 36 0 36 10 42 65 36 42 -4 65 -17 65 -36z"/> <path d="M1197 566 c-15 -91 -3 -266 18 -266 31 0 36 251 5 270 -11 7 -21 5 -23 -4z"/> <path d="M1314 568 c-8 -8 -14 -72 -14 -141 l0 -127 100 0 c55 0 100 9 100 20 0 11 -36 20 -80 20 -67 0 -80 7 -80 40 0 32 13 40 70 40 39 0 70 9 70 20 0 11 -31 20 -70 20 -49 0 -70 9 -70 30 0 22 22 30 82 30 56 0 79 8 73 25 -9 27 -158 46 -181 23z"/> <path d="M1560 440 c0 -155 34 -193 44 -48 l6 92 69 -92 c94 -126 115 -119 108 33 -3 69 -6 134 -6 144 -2 53 -39 -29 -45 -98 l-6 -79 -70 94 c-92 122 -100 119 -100 -46z"/> <path d="M1833 567 c-26 -27 -12 -47 34 -47 46 0 47 -5 39 -110 -8 -91 -4 -110 22 -110 25 0 32 23 32 110 0 97 5 110 40 110 22 0 40 13 40 30 0 31 -178 45 -207 17z"/> <path d="M2105 567 c-16 -7 -25 -55 -25 -139 l0 -128 100 0 c55 0 100 9 100 20 0 11 -36 20 -80 20 -67 0 -80 7 -80 40 0 32 13 40 70 40 39 0 70 9 70 20 0 11 -31 20 -70 20 -49 0 -70 9 -70 30 0 22 22 30 82 30 56 0 79 8 73 25 -8 26 -125 41 -170 22z"/> <path d="M2435 569 c-8 -9 -15 -73 -15 -142 l0 -127 86 0 c226 0 245 244 21 274 -43 5 -84 3 -92 -5z m181 -73 c61 -61 13 -156 -80 -156 -53 0 -56 5 -56 90 0 95 72 130 136 66z"/> <path d="M2740 441 l0 -141 100 0 c55 0 100 9 100 20 0 11 -36 20 -80 20 -67 0 -80 7 -80 40 0 32 13 40 70 40 39 0 70 9 70 20 0 11 -31 20 -70 20 -100 0 -95 55 5 64 107 9 93 45 -20 52 l-95 6 0 -141z"/> <path d="M3167 555 c-62 -99 -122 -255 -98 -255 15 0 32 14 38 30 17 43 146 40 171 -5 49 -89 38 5 -16 123 -63 139 -70 147 -95 107z m59 -115 c8 -32 1 -40 -38 -40 -54 0 -57 6 -27 62 24 45 49 37 65 -22z"/> <path d="M3375 568 c-23 -22 -18 -268 5 -268 11 0 20 18 20 40 0 31 13 40 59 40 100 0 160 103 93 159 -36 29 -157 50 -177 29z m155 -98 c0 -31 -15 -41 -65 -46 -58 -6 -65 -1 -65 46 0 47 7 52 65 46 50 -5 65 -15 65 -46z"/> <path d="M3635 568 c-31 -30 -17 -268 15 -268 17 0 30 18 30 40 0 54 55 51 100 -5 20 -25 43 -38 51 -30 8 8 3 28 -11 45 -20 24 -21 37 -3 55 32 32 29 105 -5 134 -36 29 -157 50 -177 29z m155 -98 c0 -30 -15 -41 -62 -46 -58 -6 -62 -2 -53 46 13 67 115 67 115 0z"/> <path d="M3900 437 l0 -137 100 0 c55 0 100 9 100 20 0 11 -36 20 -80 20 -67 0 -80 7 -80 40 0 32 13 40 70 40 39 0 70 9 70 20 0 11 -31 20 -70 20 -100 0 -95 55 5 64 100 8 77 45 -30 48 l-85 3 0 -138z"/> <path d="M4159 575 c-17 -146 -12 -275 13 -275 20 0 28 26 28 93 l0 94 73 -94 c96 -123 107 -118 107 47 0 80 -9 140 -20 140 -11 0 -20 -46 -20 -103 l0 -102 -82 102 c-72 91 -96 115 -99 98z"/> <path d="M4460 441 l0 -143 93 6 c124 8 186 81 148 173 -27 65 -52 80 -166 96 l-75 11 0 -143z m168 67 c82 -31 23 -168 -72 -168 -53 0 -56 5 -56 90 0 94 34 114 128 78z"/> <path d="M4773 567 c-21 -22 -15 -267 7 -267 11 0 20 60 20 140 0 141 -2 151 -27 127z"/> <path d="M4860 551 c0 -18 25 -31 70 -35 l69 -6 -69 -88 c-39 -48 -70 -95 -70 -105 0 -32 275 -20 287 13 16 42 132 39 164 -5 53 -72 47 -6 -11 122 -74 163 -78 163 -151 8 l-59 -126 -85 11 -85 10 81 95 c45 52 76 104 69 115 -20 33 -210 25 -210 -9z m377 -148 c-55 -9 -64 6 -36 59 l24 45 26 -49 c24 -43 22 -49 -14 -55z"/> <path d="M5445 555 c-46 -21 -79 -98 -67 -155 25 -126 242 -142 242 -18 0 68 -34 78 -44 13 -13 -92 -156 -60 -156 35 0 59 44 94 114 89 88 -5 99 0 57 32 -45 34 -83 35 -146 4z"/> <path d="M5705 567 c-16 -7 -25 -55 -25 -139 l0 -128 100 0 c55 0 100 9 100 20 0 11 -36 20 -80 20 -67 0 -80 7 -80 40 0 32 13 40 70 40 39 0 70 9 70 20 0 11 -31 20 -70 20 -49 0 -70 9 -70 30 0 22 22 30 82 30 56 0 79 8 73 25 -8 26 -125 41 -170 22z"/> <path d="M5939 571 c-10 -97 1 -261 19 -267 14 -5 22 24 22 79 l0 87 47 -78 47 -78 53 88 53 88 0 -95 c0 -52 9 -95 20 -95 25 0 27 253 3 268 -10 6 -39 -29 -65 -78 -58 -110 -67 -111 -117 -11 -37 72 -79 119 -82 92z"/> </g> </svg>